```plantuml
@startuml

left to right direction


class ch.admin.bj.swiyu.didtoolbox.EcP256ProofOfPossessionJWSSigner {
	{field} #signingKey : com.nimbusds.jose.jwk.ECKey
	{method} +getAlgorithm () : com.nimbusds.jose.JWSAlgorithm
	{method} +getJCAContext () : com.nimbusds.jose.jca.JCAContext
	{method} +getKid () : String
	{method} +sign ( paramJWSHeader1 : com.nimbusds.jose.JWSHeader , param[B2 : [B ) : com.nimbusds.jose.util.Base64URL
	{method} +supportedJWSAlgorithms () : java.util.Set
}


class ch.admin.bj.swiyu.didtoolbox.Ed25519VerificationMethodKeyProviderImpl {
	{field} #keyPair : java.security.KeyPair
	{field} #provider : java.security.Provider
	{method} +addProof ( paramString1 : String , paramString2 : String , paramString3 : String , paramZonedDateTime4 : java.time.ZonedDateTime ) : String
	{method} +generateSignature ( param[B1 : [B ) : [B <<deprecated>> 
	{method} +getVerificationKeyMultibase () : String
	{method} +isKeyMultibaseInSet ( paramSet1 : java.util.Set ) : boolean
	{method}  {static} #sanityCheck ( paramEd25519VerificationMethodKeyProviderImpl1 : ch.admin.bj.swiyu.didtoolbox.Ed25519VerificationMethodKeyProviderImpl ) : void
	{method} +writePublicKeyAsPem ( paramFile1 : java.io.File ) : void
}


class ch.admin.bj.swiyu.didtoolbox.ProofOfPossessionCreator {
	{method} +create ( paramString1 : String , paramDuration2 : java.time.Duration ) : com.nimbusds.jwt.SignedJWT
}


class ch.admin.bj.swiyu.didtoolbox.ProofOfPossessionCreatorException {
}


interface ch.admin.bj.swiyu.didtoolbox.ProofOfPossessionJWSSigner {
	{method}  {abstract} +getAlgorithm () : com.nimbusds.jose.JWSAlgorithm
	{method}  {abstract} +getKid () : String
	{method}  {static} +of ( paramPath1 : java.nio.file.Path , paramString2 : String ) : ch.admin.bj.swiyu.didtoolbox.ProofOfPossessionJWSSigner
	{method}  {static} +of ( paramJWSSigner1 : com.nimbusds.jose.JWSSigner , paramString2 : String , paramJWSAlgorithm3 : com.nimbusds.jose.JWSAlgorithm ) : ch.admin.bj.swiyu.didtoolbox.ProofOfPossessionJWSSigner
	{method}  {static} +of ( paramPrimusKeyStoreLoader1 : ch.admin.bj.swiyu.didtoolbox.securosys.primus.PrimusKeyStoreLoader , paramString2 : String , paramString3 : String , paramString4 : String ) : ch.admin.bj.swiyu.didtoolbox.ProofOfPossessionJWSSigner
	{method} +supportedJWSAlgorithms () : java.util.Set
}


class ch.admin.bj.swiyu.didtoolbox.ProofOfPossessionVerifier {
	{method} +isValid ( paramSignedJWT1 : com.nimbusds.jwt.SignedJWT , paramString2 : String ) : boolean
	{method} +verify ( paramSignedJWT1 : com.nimbusds.jwt.SignedJWT , paramString2 : String ) : void
}


class ch.admin.bj.swiyu.didtoolbox.ProofOfPossessionVerifierException {
}


enum ch.admin.bj.swiyu.didtoolbox.ProofOfPossessionVerifierException$ErrorCause {
	{field} +EXPIRED
	{field} +FAILED_TO_VERIFY
	{field} +INVALID_NONCE
	{field} +INVALID_SIGNATURE
	{field} +KEY_MISMATCH
	{field} +MALFORMED_CLAIM_KID
	{field} +UNPARSABLE
	{field} +UNSUPPORTED_ALGORITHM
}


interface ch.admin.bj.swiyu.didtoolbox.VerificationMethodKeyProvider {
	{method}  {abstract} +generateSignature ( param[B1 : [B ) : [B
	{method}  {abstract} +getVerificationKeyMultibase () : String
	{method}  {abstract} +isKeyMultibaseInSet ( paramSet1 : java.util.Set ) : boolean
}


class ch.admin.bj.swiyu.didtoolbox.context.DidLogCreatorContext {
	{method}  {static} +builder () : ch.admin.bj.swiyu.didtoolbox.context.DidLogCreatorContext$DidLogCreatorContextBuilder <<deprecated>> 
	{method}  {static} +builder ( paramDidMethodEnum1 : ch.admin.bj.swiyu.didtoolbox.model.DidMethodEnum , paramVcDataIntegrityCryptographicSuite2 : ch.admin.bj.swiyu.didtoolbox.vc_data_integrity.VcDataIntegrityCryptographicSuite ) : ch.admin.bj.swiyu.didtoolbox.context.DidLogCreatorContext$DidLogCreatorContextBuilder
	{method} +create ( paramURL1 : java.net.URL ) : String
}


class ch.admin.bj.swiyu.didtoolbox.context.DidLogCreatorContext$DidLogCreatorContextBuilder {
	{method} +assertionMethodKeys ( paramMap1 : java.util.Map ) : ch.admin.bj.swiyu.didtoolbox.context.DidLogCreatorContext$DidLogCreatorContextBuilder <<deprecated>> 
	{method} +assertionMethods ( paramSet1 : java.util.Set ) : ch.admin.bj.swiyu.didtoolbox.context.DidLogCreatorContext$DidLogCreatorContextBuilder
	{method} +authenticationKeys ( paramMap1 : java.util.Map ) : ch.admin.bj.swiyu.didtoolbox.context.DidLogCreatorContext$DidLogCreatorContextBuilder <<deprecated>> 
	{method} +authentications ( paramSet1 : java.util.Set ) : ch.admin.bj.swiyu.didtoolbox.context.DidLogCreatorContext$DidLogCreatorContextBuilder
	{method} +build () : ch.admin.bj.swiyu.didtoolbox.context.DidLogCreatorContext
	{method} +cryptographicSuite ( paramVcDataIntegrityCryptographicSuite1 : ch.admin.bj.swiyu.didtoolbox.vc_data_integrity.VcDataIntegrityCryptographicSuite ) : ch.admin.bj.swiyu.didtoolbox.context.DidLogCreatorContext$DidLogCreatorContextBuilder
	{method} +didMethod ( paramDidMethodEnum1 : ch.admin.bj.swiyu.didtoolbox.model.DidMethodEnum ) : ch.admin.bj.swiyu.didtoolbox.context.DidLogCreatorContext$DidLogCreatorContextBuilder
	{method} +forceOverwrite ( paramboolean1 : boolean ) : ch.admin.bj.swiyu.didtoolbox.context.DidLogCreatorContext$DidLogCreatorContextBuilder <<deprecated>> 
	{method} +nextKeyHashesDidMethodParameter ( paramSet1 : java.util.Set ) : ch.admin.bj.swiyu.didtoolbox.context.DidLogCreatorContext$DidLogCreatorContextBuilder
	{method} +nextKeys ( paramSet1 : java.util.Set ) : ch.admin.bj.swiyu.didtoolbox.context.DidLogCreatorContext$DidLogCreatorContextBuilder <<deprecated>> 
	{method} +toString () : String
	{method} +updateKeys ( paramSet1 : java.util.Set ) : ch.admin.bj.swiyu.didtoolbox.context.DidLogCreatorContext$DidLogCreatorContextBuilder <<deprecated>> 
	{method} +updateKeysDidMethodParameter ( paramSet1 : java.util.Set ) : ch.admin.bj.swiyu.didtoolbox.context.DidLogCreatorContext$DidLogCreatorContextBuilder
	{method} +verificationMethodKeyProvider ( paramVcDataIntegrityCryptographicSuite1 : ch.admin.bj.swiyu.didtoolbox.vc_data_integrity.VcDataIntegrityCryptographicSuite ) : ch.admin.bj.swiyu.didtoolbox.context.DidLogCreatorContext$DidLogCreatorContextBuilder <<deprecated>> 
}


interface ch.admin.bj.swiyu.didtoolbox.context.DidLogCreatorStrategy {
	{method}  {abstract} +createDidLog ( paramURL1 : java.net.URL ) : String
	{method}  {abstract} +createDidLog ( paramURL1 : java.net.URL , paramZonedDateTime2 : java.time.ZonedDateTime ) : String
}


class ch.admin.bj.swiyu.didtoolbox.context.DidLogCreatorStrategyException {
}


class ch.admin.bj.swiyu.didtoolbox.context.DidLogDeactivatorContext {
	{method}  {static} +builder () : ch.admin.bj.swiyu.didtoolbox.context.DidLogDeactivatorContext$DidLogDeactivatorContextBuilder <<deprecated>> 
	{method}  {static} +builder ( paramDidMethodEnum1 : ch.admin.bj.swiyu.didtoolbox.model.DidMethodEnum , paramVcDataIntegrityCryptographicSuite2 : ch.admin.bj.swiyu.didtoolbox.vc_data_integrity.VcDataIntegrityCryptographicSuite ) : ch.admin.bj.swiyu.didtoolbox.context.DidLogDeactivatorContext$DidLogDeactivatorContextBuilder
	{method} +deactivate ( paramString1 : String ) : String
	{method} +deactivate ( paramFile1 : java.io.File ) : String
}


class ch.admin.bj.swiyu.didtoolbox.context.DidLogDeactivatorContext$DidLogDeactivatorContextBuilder {
	{method} +build () : ch.admin.bj.swiyu.didtoolbox.context.DidLogDeactivatorContext
	{method} +cryptographicSuite ( paramVcDataIntegrityCryptographicSuite1 : ch.admin.bj.swiyu.didtoolbox.vc_data_integrity.VcDataIntegrityCryptographicSuite ) : ch.admin.bj.swiyu.didtoolbox.context.DidLogDeactivatorContext$DidLogDeactivatorContextBuilder
	{method} +didMethod ( paramDidMethodEnum1 : ch.admin.bj.swiyu.didtoolbox.model.DidMethodEnum ) : ch.admin.bj.swiyu.didtoolbox.context.DidLogDeactivatorContext$DidLogDeactivatorContextBuilder
	{method} +toString () : String
	{method} +verificationMethodKeyProvider ( paramVcDataIntegrityCryptographicSuite1 : ch.admin.bj.swiyu.didtoolbox.vc_data_integrity.VcDataIntegrityCryptographicSuite ) : ch.admin.bj.swiyu.didtoolbox.context.DidLogDeactivatorContext$DidLogDeactivatorContextBuilder <<deprecated>> 
}


interface ch.admin.bj.swiyu.didtoolbox.context.DidLogDeactivatorStrategy {
	{method}  {abstract} +deactivateDidLog ( paramString1 : String ) : String
	{method}  {abstract} +deactivateDidLog ( paramFile1 : java.io.File ) : String
	{method}  {abstract} +deactivateDidLog ( paramString1 : String , paramZonedDateTime2 : java.time.ZonedDateTime ) : String
}


class ch.admin.bj.swiyu.didtoolbox.context.DidLogDeactivatorStrategyException {
}


class ch.admin.bj.swiyu.didtoolbox.context.DidLogUpdaterContext {
	{method}  {static} +builder () : ch.admin.bj.swiyu.didtoolbox.context.DidLogUpdaterContext$DidLogUpdaterContextBuilder <<deprecated>> 
	{method}  {static} +builder ( paramDidMethodEnum1 : ch.admin.bj.swiyu.didtoolbox.model.DidMethodEnum , paramVcDataIntegrityCryptographicSuite2 : ch.admin.bj.swiyu.didtoolbox.vc_data_integrity.VcDataIntegrityCryptographicSuite ) : ch.admin.bj.swiyu.didtoolbox.context.DidLogUpdaterContext$DidLogUpdaterContextBuilder
	{method} +update ( paramString1 : String ) : String
	{method} +update ( paramFile1 : java.io.File ) : String
}


class ch.admin.bj.swiyu.didtoolbox.context.DidLogUpdaterContext$DidLogUpdaterContextBuilder {
	{method} +assertionMethodKeys ( paramMap1 : java.util.Map ) : ch.admin.bj.swiyu.didtoolbox.context.DidLogUpdaterContext$DidLogUpdaterContextBuilder <<deprecated>> 
	{method} +assertionMethods ( paramSet1 : java.util.Set ) : ch.admin.bj.swiyu.didtoolbox.context.DidLogUpdaterContext$DidLogUpdaterContextBuilder
	{method} +authenticationKeys ( paramMap1 : java.util.Map ) : ch.admin.bj.swiyu.didtoolbox.context.DidLogUpdaterContext$DidLogUpdaterContextBuilder <<deprecated>> 
	{method} +authentications ( paramSet1 : java.util.Set ) : ch.admin.bj.swiyu.didtoolbox.context.DidLogUpdaterContext$DidLogUpdaterContextBuilder
	{method} +build () : ch.admin.bj.swiyu.didtoolbox.context.DidLogUpdaterContext
	{method} +cryptographicSuite ( paramVcDataIntegrityCryptographicSuite1 : ch.admin.bj.swiyu.didtoolbox.vc_data_integrity.VcDataIntegrityCryptographicSuite ) : ch.admin.bj.swiyu.didtoolbox.context.DidLogUpdaterContext$DidLogUpdaterContextBuilder
	{method} +didMethod ( paramDidMethodEnum1 : ch.admin.bj.swiyu.didtoolbox.model.DidMethodEnum ) : ch.admin.bj.swiyu.didtoolbox.context.DidLogUpdaterContext$DidLogUpdaterContextBuilder
	{method} +nextKeyHashesDidMethodParameter ( paramSet1 : java.util.Set ) : ch.admin.bj.swiyu.didtoolbox.context.DidLogUpdaterContext$DidLogUpdaterContextBuilder
	{method} +nextKeys ( paramSet1 : java.util.Set ) : ch.admin.bj.swiyu.didtoolbox.context.DidLogUpdaterContext$DidLogUpdaterContextBuilder <<deprecated>> 
	{method} +toString () : String
	{method} +updateKeys ( paramSet1 : java.util.Set ) : ch.admin.bj.swiyu.didtoolbox.context.DidLogUpdaterContext$DidLogUpdaterContextBuilder <<deprecated>> 
	{method} +updateKeysDidMethodParameter ( paramSet1 : java.util.Set ) : ch.admin.bj.swiyu.didtoolbox.context.DidLogUpdaterContext$DidLogUpdaterContextBuilder
	{method} +verificationMethodKeyProvider ( paramVcDataIntegrityCryptographicSuite1 : ch.admin.bj.swiyu.didtoolbox.vc_data_integrity.VcDataIntegrityCryptographicSuite ) : ch.admin.bj.swiyu.didtoolbox.context.DidLogUpdaterContext$DidLogUpdaterContextBuilder <<deprecated>> 
}


interface ch.admin.bj.swiyu.didtoolbox.context.DidLogUpdaterStrategy {
	{method}  {abstract} +updateDidLog ( paramString1 : String ) : String
	{method}  {abstract} +updateDidLog ( paramFile1 : java.io.File ) : String
	{method}  {abstract} +updateDidLog ( paramString1 : String , paramZonedDateTime2 : java.time.ZonedDateTime ) : String
}


class ch.admin.bj.swiyu.didtoolbox.context.DidLogUpdaterStrategyException {
}


class ch.admin.bj.swiyu.didtoolbox.context.IncompleteDidLogEntryBuilderException {
}


class ch.admin.bj.swiyu.didtoolbox.jcommander.CreateProofOfPossessionCommand {
	{field} +didLog : java.io.File
	{field} +kid : String
	{field} +nonce : String
	{field} +primusKeyAlias : String
	{field} +primusKeyPassword : String
	{field} +securosysPrimusKeyStoreLoader : ch.admin.bj.swiyu.didtoolbox.securosys.primus.PrimusKeyStoreLoader
	{field} +signingKeyPemFile : java.io.File
}


class ch.admin.bj.swiyu.didtoolbox.jcommander.VerifyProofOfPossessionCommand {
	{field} +didLogFile : java.io.File
	{field} +jwt : com.nimbusds.jwt.SignedJWT
	{field} +nonce : String
}


enum ch.admin.bj.swiyu.didtoolbox.model.DidMethodEnum {
	{field} +did:tdw:0.3
	{field} +did:webvh:1.0
}


class ch.admin.bj.swiyu.didtoolbox.model.NamedDidMethodParameters {
	{field} +deactivated : Boolean
	{field} +nextKeyHashes : java.util.Set
	{field} +updateKeys : java.util.Set
	{method} +getDidMethodEnum () : ch.admin.bj.swiyu.didtoolbox.model.DidMethodEnum
}


interface ch.admin.bj.swiyu.didtoolbox.model.NextKeyHashesDidMethodParameter {
	{method}  {static} +collectHashesIntoJsonArray ( paramSet1 : java.util.Set ) : com.google.gson.JsonArray
	{method} +defaultEquals ( paramObject1 : Object ) : boolean
	{method}  {abstract} +getNextKeyHash () : String
	{method}  {static} +of ( paramString1 : String ) : ch.admin.bj.swiyu.didtoolbox.model.NextKeyHashesDidMethodParameter
	{method}  {static} +of ( paramPath;1 : [Ljava.nio.file.Path; ) : java.util.Set
	{method}  {static} +of ( paramPublicKey;1 : [Ljava.security.PublicKey; ) : java.util.Set
	{method}  {static} +of ( paramPath1 : java.nio.file.Path ) : ch.admin.bj.swiyu.didtoolbox.model.NextKeyHashesDidMethodParameter
	{method}  {static} +of ( paramPublicKey1 : java.security.PublicKey ) : ch.admin.bj.swiyu.didtoolbox.model.NextKeyHashesDidMethodParameter
	{method}  {static} +of ( paramSet1 : java.util.Set ) : java.util.Set
}


class ch.admin.bj.swiyu.didtoolbox.model.NextKeyHashesDidMethodParameterException {
}


interface ch.admin.bj.swiyu.didtoolbox.model.UpdateKeysDidMethodParameter {
	{method} +defaultEquals ( paramObject1 : Object ) : boolean
	{method}  {abstract} +getUpdateKey () : String
	{method}  {static} +of ( paramString1 : String ) : ch.admin.bj.swiyu.didtoolbox.model.UpdateKeysDidMethodParameter
	{method}  {static} +of ( paramPath;1 : [Ljava.nio.file.Path; ) : java.util.Set
	{method}  {static} +of ( paramPublicKey;1 : [Ljava.security.PublicKey; ) : java.util.Set
	{method}  {static} +of ( paramPath1 : java.nio.file.Path ) : ch.admin.bj.swiyu.didtoolbox.model.UpdateKeysDidMethodParameter
	{method}  {static} +of ( paramPublicKey1 : java.security.PublicKey ) : ch.admin.bj.swiyu.didtoolbox.model.UpdateKeysDidMethodParameter
	{method}  {static} +of ( paramSet1 : java.util.Set ) : java.util.Set
}


class ch.admin.bj.swiyu.didtoolbox.model.UpdateKeysDidMethodParameterException {
}


interface ch.admin.bj.swiyu.didtoolbox.model.VerificationMaterial {
	{method}  {abstract} +getPublicKeyJwk () : String
	{method}  {static} +of ( paramString1 : String , paramString2 : String ) : ch.admin.bj.swiyu.didtoolbox.model.VerificationMaterial
	{method}  {static} +of ( paramString1 : String , paramPath2 : java.nio.file.Path ) : ch.admin.bj.swiyu.didtoolbox.model.VerificationMaterial
	{method}  {static} +of ( paramString1 : String , paramECPublicKey2 : java.security.interfaces.ECPublicKey ) : ch.admin.bj.swiyu.didtoolbox.model.VerificationMaterial
}


interface ch.admin.bj.swiyu.didtoolbox.model.VerificationMethod {
	{method} +defaultEquals ( paramObject1 : Object ) : boolean
	{method}  {abstract} +getIdFragment () : String
	{method}  {abstract} +getType () : String <<deprecated>> 
	{method}  {abstract} +getVerificationMaterial () : ch.admin.bj.swiyu.didtoolbox.model.VerificationMaterial
	{method}  {static} +of ( paramVerificationMaterial1 : ch.admin.bj.swiyu.didtoolbox.model.VerificationMaterial ) : ch.admin.bj.swiyu.didtoolbox.model.VerificationMethod
	{method}  {static} +of ( paramString1 : String , paramString2 : String ) : ch.admin.bj.swiyu.didtoolbox.model.VerificationMethod
	{method}  {static} +of ( paramString1 : String , paramPath2 : java.nio.file.Path ) : ch.admin.bj.swiyu.didtoolbox.model.VerificationMethod
	{method}  {static} +of ( paramString1 : String , paramECPublicKey2 : java.security.interfaces.ECPublicKey ) : ch.admin.bj.swiyu.didtoolbox.model.VerificationMethod
	{method}  {static} +of ( paramString1 : String , paramString2 : String , paramString3 : String ) : ch.admin.bj.swiyu.didtoolbox.model.VerificationMethod <<deprecated>> 
	{method}  {static} +of ( paramString1 : String , paramString2 : String , paramPath3 : java.nio.file.Path ) : ch.admin.bj.swiyu.didtoolbox.model.VerificationMethod <<deprecated>> 
	{method}  {static} +of ( paramString1 : String , paramString2 : String , paramECPublicKey3 : java.security.interfaces.ECPublicKey ) : ch.admin.bj.swiyu.didtoolbox.model.VerificationMethod <<deprecated>> 
}


class ch.admin.bj.swiyu.didtoolbox.model.VerificationMethodException {
}


class ch.admin.bj.swiyu.didtoolbox.securosys.primus.HsmProofOfPossessionJWSSigner {
	{method} +getAlgorithm () : com.nimbusds.jose.JWSAlgorithm
	{method} +getJCAContext () : com.nimbusds.jose.jca.JCAContext
	{method}  {static} +newPkcs11Signer ( paramString1 : String , paramString2 : String , paramString3 : String , paramString4 : String ) : ch.admin.bj.swiyu.didtoolbox.securosys.primus.HsmProofOfPossessionJWSSigner
	{method}  {static} +newPrimusSigner ( paramPrimusKeyStoreLoader1 : ch.admin.bj.swiyu.didtoolbox.securosys.primus.PrimusKeyStoreLoader , paramString2 : String , paramString3 : String , paramString4 : String ) : ch.admin.bj.swiyu.didtoolbox.securosys.primus.HsmProofOfPossessionJWSSigner
	{method} +sign ( paramJWSHeader1 : com.nimbusds.jose.JWSHeader , param[B2 : [B ) : com.nimbusds.jose.util.Base64URL
}


class ch.admin.bj.swiyu.didtoolbox.securosys.primus.PrimusEd25519ProofOfPossessionJWSSignerImpl {
	{method} +getAlgorithm () : com.nimbusds.jose.JWSAlgorithm
	{method} +sign ( paramJWSHeader1 : com.nimbusds.jose.JWSHeader , param[B2 : [B ) : com.nimbusds.jose.util.Base64URL
	{method} +supportedJWSAlgorithms () : java.util.Set
}


class ch.admin.bj.swiyu.didtoolbox.securosys.primus.PrimusEd25519VerificationMethodKeyProviderImpl {
	{method} +generateSignature ( param[B1 : [B ) : [B
	{method}  {static} #optionallyUnderifyRS ( param[B1 : [B ) : [B
}


class ch.admin.bj.swiyu.didtoolbox.vc_data_integrity.EdDsaJcs2022VcDataIntegrityCryptographicSuite {
	{field} #cryptoSuite : ch.admin.eid.did_sidekicks.EddsaJcs2022Cryptosuite
	{field} #signingKey : ch.admin.eid.did_sidekicks.Ed25519SigningKey
	{method} +addProof ( paramString1 : String , paramString2 : String , paramString3 : String , paramZonedDateTime4 : java.time.ZonedDateTime ) : String
	{method} +generateSignature ( param[B1 : [B ) : [B <<deprecated>> 
	{method} +getVerificationKeyMultibase () : String
	{method} +isKeyMultibaseInSet ( paramSet1 : java.util.Set ) : boolean
	{method} +verifyStrict ( param[B1 : [B , param[B2 : [B ) : boolean
	{method} +writePkcs8PemFile ( paramPath1 : java.nio.file.Path ) : void
	{method} +writePublicKeyPemFile ( paramPath1 : java.nio.file.Path ) : void
}


interface ch.admin.bj.swiyu.didtoolbox.vc_data_integrity.VcDataIntegrityCryptographicSuite {
	{method}  {abstract} +addProof ( paramString1 : String , paramString2 : String , paramString3 : String , paramZonedDateTime4 : java.time.ZonedDateTime ) : String
	{method} +verifyProof ( paramString1 : String , paramString2 : String ) : boolean
}


class ch.admin.bj.swiyu.didtoolbox.vc_data_integrity.VcDataIntegrityCryptographicSuiteException {
}




ch.admin.bj.swiyu.didtoolbox.EcP256ProofOfPossessionJWSSigner ..|>  ch.admin.bj.swiyu.didtoolbox.ProofOfPossessionJWSSigner
ch.admin.bj.swiyu.didtoolbox.Ed25519VerificationMethodKeyProviderImpl ..|>  ch.admin.bj.swiyu.didtoolbox.vc_data_integrity.VcDataIntegrityCryptographicSuite
ch.admin.bj.swiyu.didtoolbox.ProofOfPossessionCreator *--  ch.admin.bj.swiyu.didtoolbox.ProofOfPossessionJWSSigner : signer
ch.admin.bj.swiyu.didtoolbox.ProofOfPossessionVerifierException *--  ch.admin.bj.swiyu.didtoolbox.ProofOfPossessionVerifierException$ErrorCause : errorCause
ch.admin.bj.swiyu.didtoolbox.context.DidLogCreatorContext "1" o-- "0..*"  ch.admin.bj.swiyu.didtoolbox.model.NextKeyHashesDidMethodParameter : nextKeyHashesDidMethodParameter
ch.admin.bj.swiyu.didtoolbox.context.DidLogCreatorContext "1" o-- "0..*"  ch.admin.bj.swiyu.didtoolbox.model.UpdateKeysDidMethodParameter : updateKeysDidMethodParameter
ch.admin.bj.swiyu.didtoolbox.context.DidLogCreatorContext "1" o-- "0..*"  ch.admin.bj.swiyu.didtoolbox.model.VerificationMethod : assertionMethods
ch.admin.bj.swiyu.didtoolbox.context.DidLogCreatorContext "1" o-- "0..*"  ch.admin.bj.swiyu.didtoolbox.model.VerificationMethod : authentications
ch.admin.bj.swiyu.didtoolbox.context.DidLogCreatorContext -->  ch.admin.bj.swiyu.didtoolbox.model.DidMethodEnum : didMethod
ch.admin.bj.swiyu.didtoolbox.context.DidLogCreatorContext -->  ch.admin.bj.swiyu.didtoolbox.vc_data_integrity.VcDataIntegrityCryptographicSuite : cryptographicSuite
ch.admin.bj.swiyu.didtoolbox.context.DidLogCreatorContext -->  ch.admin.bj.swiyu.didtoolbox.vc_data_integrity.VcDataIntegrityCryptographicSuite : verificationMethodKeyProvider
ch.admin.bj.swiyu.didtoolbox.context.DidLogCreatorContext$DidLogCreatorContextBuilder "1" o-- "0..*"  ch.admin.bj.swiyu.didtoolbox.model.NextKeyHashesDidMethodParameter : nextKeyHashesDidMethodParameter
ch.admin.bj.swiyu.didtoolbox.context.DidLogCreatorContext$DidLogCreatorContextBuilder "1" o-- "0..*"  ch.admin.bj.swiyu.didtoolbox.model.UpdateKeysDidMethodParameter : updateKeysDidMethodParameter
ch.admin.bj.swiyu.didtoolbox.context.DidLogCreatorContext$DidLogCreatorContextBuilder "1" o-- "0..*"  ch.admin.bj.swiyu.didtoolbox.model.VerificationMethod : assertionMethods
ch.admin.bj.swiyu.didtoolbox.context.DidLogCreatorContext$DidLogCreatorContextBuilder "1" o-- "0..*"  ch.admin.bj.swiyu.didtoolbox.model.VerificationMethod : authentications
ch.admin.bj.swiyu.didtoolbox.context.DidLogCreatorContext$DidLogCreatorContextBuilder -->  ch.admin.bj.swiyu.didtoolbox.model.DidMethodEnum : didMethod$value
ch.admin.bj.swiyu.didtoolbox.context.DidLogCreatorContext$DidLogCreatorContextBuilder -->  ch.admin.bj.swiyu.didtoolbox.vc_data_integrity.VcDataIntegrityCryptographicSuite : cryptographicSuite
ch.admin.bj.swiyu.didtoolbox.context.DidLogCreatorContext$DidLogCreatorContextBuilder -->  ch.admin.bj.swiyu.didtoolbox.vc_data_integrity.VcDataIntegrityCryptographicSuite : verificationMethodKeyProvider
ch.admin.bj.swiyu.didtoolbox.context.DidLogDeactivatorContext -->  ch.admin.bj.swiyu.didtoolbox.model.DidMethodEnum : didMethod
ch.admin.bj.swiyu.didtoolbox.context.DidLogDeactivatorContext -->  ch.admin.bj.swiyu.didtoolbox.vc_data_integrity.VcDataIntegrityCryptographicSuite : cryptographicSuite
ch.admin.bj.swiyu.didtoolbox.context.DidLogDeactivatorContext -->  ch.admin.bj.swiyu.didtoolbox.vc_data_integrity.VcDataIntegrityCryptographicSuite : verificationMethodKeyProvider
ch.admin.bj.swiyu.didtoolbox.context.DidLogDeactivatorContext$DidLogDeactivatorContextBuilder -->  ch.admin.bj.swiyu.didtoolbox.model.DidMethodEnum : didMethod$value
ch.admin.bj.swiyu.didtoolbox.context.DidLogDeactivatorContext$DidLogDeactivatorContextBuilder -->  ch.admin.bj.swiyu.didtoolbox.vc_data_integrity.VcDataIntegrityCryptographicSuite : cryptographicSuite$value
ch.admin.bj.swiyu.didtoolbox.context.DidLogDeactivatorContext$DidLogDeactivatorContextBuilder -->  ch.admin.bj.swiyu.didtoolbox.vc_data_integrity.VcDataIntegrityCryptographicSuite : verificationMethodKeyProvider
ch.admin.bj.swiyu.didtoolbox.context.DidLogUpdaterContext "1" o-- "0..*"  ch.admin.bj.swiyu.didtoolbox.model.NextKeyHashesDidMethodParameter : nextKeyHashesDidMethodParameter
ch.admin.bj.swiyu.didtoolbox.context.DidLogUpdaterContext "1" o-- "0..*"  ch.admin.bj.swiyu.didtoolbox.model.UpdateKeysDidMethodParameter : updateKeysDidMethodParameter
ch.admin.bj.swiyu.didtoolbox.context.DidLogUpdaterContext "1" o-- "0..*"  ch.admin.bj.swiyu.didtoolbox.model.VerificationMethod : assertionMethods
ch.admin.bj.swiyu.didtoolbox.context.DidLogUpdaterContext "1" o-- "0..*"  ch.admin.bj.swiyu.didtoolbox.model.VerificationMethod : authentications
ch.admin.bj.swiyu.didtoolbox.context.DidLogUpdaterContext -->  ch.admin.bj.swiyu.didtoolbox.model.DidMethodEnum : didMethod
ch.admin.bj.swiyu.didtoolbox.context.DidLogUpdaterContext -->  ch.admin.bj.swiyu.didtoolbox.vc_data_integrity.VcDataIntegrityCryptographicSuite : cryptographicSuite
ch.admin.bj.swiyu.didtoolbox.context.DidLogUpdaterContext -->  ch.admin.bj.swiyu.didtoolbox.vc_data_integrity.VcDataIntegrityCryptographicSuite : verificationMethodKeyProvider
ch.admin.bj.swiyu.didtoolbox.context.DidLogUpdaterContext$DidLogUpdaterContextBuilder "1" o-- "0..*"  ch.admin.bj.swiyu.didtoolbox.model.NextKeyHashesDidMethodParameter : nextKeyHashesDidMethodParameter
ch.admin.bj.swiyu.didtoolbox.context.DidLogUpdaterContext$DidLogUpdaterContextBuilder "1" o-- "0..*"  ch.admin.bj.swiyu.didtoolbox.model.UpdateKeysDidMethodParameter : updateKeysDidMethodParameter
ch.admin.bj.swiyu.didtoolbox.context.DidLogUpdaterContext$DidLogUpdaterContextBuilder "1" o-- "0..*"  ch.admin.bj.swiyu.didtoolbox.model.VerificationMethod : assertionMethods
ch.admin.bj.swiyu.didtoolbox.context.DidLogUpdaterContext$DidLogUpdaterContextBuilder "1" o-- "0..*"  ch.admin.bj.swiyu.didtoolbox.model.VerificationMethod : authentications
ch.admin.bj.swiyu.didtoolbox.context.DidLogUpdaterContext$DidLogUpdaterContextBuilder -->  ch.admin.bj.swiyu.didtoolbox.model.DidMethodEnum : didMethod$value
ch.admin.bj.swiyu.didtoolbox.context.DidLogUpdaterContext$DidLogUpdaterContextBuilder -->  ch.admin.bj.swiyu.didtoolbox.vc_data_integrity.VcDataIntegrityCryptographicSuite : cryptographicSuite
ch.admin.bj.swiyu.didtoolbox.context.DidLogUpdaterContext$DidLogUpdaterContextBuilder -->  ch.admin.bj.swiyu.didtoolbox.vc_data_integrity.VcDataIntegrityCryptographicSuite : verificationMethodKeyProvider
ch.admin.bj.swiyu.didtoolbox.securosys.primus.HsmProofOfPossessionJWSSigner ..|>  ch.admin.bj.swiyu.didtoolbox.ProofOfPossessionJWSSigner
ch.admin.bj.swiyu.didtoolbox.securosys.primus.PrimusEd25519ProofOfPossessionJWSSignerImpl --|>  ch.admin.bj.swiyu.didtoolbox.securosys.primus.PrimusEd25519VerificationMethodKeyProviderImpl
ch.admin.bj.swiyu.didtoolbox.securosys.primus.PrimusEd25519ProofOfPossessionJWSSignerImpl ..|>  ch.admin.bj.swiyu.didtoolbox.ProofOfPossessionJWSSigner
ch.admin.bj.swiyu.didtoolbox.securosys.primus.PrimusEd25519VerificationMethodKeyProviderImpl --|>  ch.admin.bj.swiyu.didtoolbox.Ed25519VerificationMethodKeyProviderImpl
ch.admin.bj.swiyu.didtoolbox.vc_data_integrity.EdDsaJcs2022VcDataIntegrityCryptographicSuite ..|>  ch.admin.bj.swiyu.didtoolbox.vc_data_integrity.VcDataIntegrityCryptographicSuite
ch.admin.bj.swiyu.didtoolbox.vc_data_integrity.VcDataIntegrityCryptographicSuite ..|>  ch.admin.bj.swiyu.didtoolbox.VerificationMethodKeyProvider

hide fields
hide methods

@enduml
```
